{
  "accessors": [
    {
      "bufferView": 2,
      "componentType": 5126,
      "count": 31233,
      "max": [
        0.1645359992980957,
        2.2965478897094727,
        0.16064999997615814
      ],
      "min": [
        -0.14531500637531281,
        2.0564680099487305,
        -0.26246100664138794
      ],
      "type": "VEC3"
    },
    {
      "bufferView": 2,
      "byteOffset": 374796,
      "componentType": 5126,
      "count": 31233,
      "max": [
        0.99977725744247437,
        0.99990445375442505,
        0.99996376037597656
      ],
      "min": [
        -0.99999922513961792,
        -0.99745035171508789,
        -0.99789649248123169
      ],
      "type": "VEC3"
    },
    {
      "bufferView": 1,
      "componentType": 5126,
      "count": 31233,
      "max": [
        0.91342198848724365,
        0.99994802474975586
      ],
      "min": [
        4.6000001020729542e-05,
        9.3000002379994839e-05
      ],
      "type": "VEC2"
    },
    {
      "bufferView": 0,
      "componentType": 5125,
      "count": 180000,
      "max": [
        31232
      ],
      "min": [
        0
      ],
      "type": "SCALAR"
    }
  ],
  "asset": {
    "extras": {
      "author": "RLA Archaeology (https://sketchfab.com/rla-archaeology)",
      "license": "CC0-1.0 (http://creativecommons.org/publicdomain/zero/1.0/)",
      "source": "https://sketchfab.com/3d-models/end-scraper-690a313-af440a2bbb1a46a88f9f92ed7a839d61",
      "title": "End Scraper (690a313)"
    },
    "generator": "Sketchfab-7.80.0",
    "version": "2.0"
  },
  "bufferViews": [
    {
      "buffer": 0,
      "byteLength": 720000,
      "byteOffset": 0,
      "name": "floatBufferViews",
      "target": 34963
    },
    {
      "buffer": 0,
      "byteLength": 249864,
      "byteOffset": 720000,
      "byteStride": 8,
      "name": "floatBufferViews",
      "target": 34962
    },
    {
      "buffer": 0,
      "byteLength": 749592,
      "byteOffset": 969864,
      "byteStride": 12,
      "name": "floatBufferViews",
      "target": 34962
    }
  ],
  "buffers": [
    {
      "byteLength": 1719456,
      "uri": "scene.bin"
    }
  ],
  "images": [
    {
      "uri": "textures/St4-End-Scraper-690a313_baseColor.jpeg"
    }
  ],
  "materials": [
    {
      "doubleSided": true,
      "emissiveFactor": [
        0,
        0,
        0
      ],
      "name": "St4-End-Scraper-690a313",
      "pbrMetallicRoughness": {
        "baseColorFactor": [
          1,
          1,
          1,
          1
        ],
        "baseColorTexture": {
          "index": 0,
          "texCoord": 0
        },
        "metallicFactor": 0,
        "roughnessFactor": 0.59999999999999998
      }
    }
  ],
  "meshes": [
    {
      "primitives": [
        {
          "attributes": {
            "NORMAL": 1,
            "POSITION": 0,
            "TEXCOORD_0": 2
          },
          "indices": 3,
          "material": 0,
          "mode": 4
        }
      ]
    }
  ],
  "nodes": [
    {
      "children": [
        1
      ],
      "name": "RootNode (gltf orientation matrix)",
      "rotation": [
        -0.70710678118654746,
        -0,
        -0,
        0.70710678118654757
      ]
    },
    {
      "children": [
        2
      ],
      "matrix": [
        0.93125051259994507,
        0.36389869451522827,
        0.01871509850025177,
        0,
        -0.30804741382598877,
        0.81367605924606323,
        -0.4929889440536499,
        0,
        -0.19462606310844421,
        0.45333105325698853,
        0.86983424425125122,
        0,
        0.66122132539749146,
        0.42511588335037231,
        1.0661892890930176,
        1
      ],
      "name": "RootNode (model correction matrix)"
    },
    {
      "children": [
        3
      ],
      "name": "St4-End-Scraper-(690a313).obj.cleaner.materialmerger.gles"
    },
    {
      "mesh": 0,
      "name": ""
    }
  ],
  "samplers": [
    {
      "magFilter": 9729,
      "minFilter": 9987,
      "wrapS": 10497,
      "wrapT": 10497
    }
  ],
  "scene": 0,
  "scenes": [
    {
      "name": "OSG_Scene",
      "nodes": [
        0
      ]
    }
  ],
  "textures": [
    {
      "sampler": 0,
      "source": 0
    }
  ]
}

